<svg class="label_mark" xmlns="http://www.w3.org/2000/svg" width="20" height="20" viewBox="0 0 20 20"><path d="M11.935 10.003l7.713-7.887c.528-.538.457-1.349-.161-1.81-.617-.458-1.543-.397-2.072.142l-7.415 7.579-7.414-7.579c-.525-.539-1.452-.599-2.072-.141-.617.46-.688 1.272-.161 1.81l7.713 7.887-7.713 7.886c-.528.54-.456 1.35.161 1.811.278.208.617.309.956.309.413 0 .827-.153 1.117-.449l7.415-7.58 7.415 7.58c.29.296.703.449 1.117.449.338 0 .677-.1.955-.309.617-.461.689-1.271.161-1.811l-7.715-7.887z"/></svg>