<svg xmlns="http://www.w3.org/2000/svg" class="icon" width="28" height="16" viewBox="0 0 28 16"><path d="M27.628 7.544c-.247-.308-6.153-7.544-13.63-7.544-7.477 0-13.383 7.236-13.631 7.544l-.367.456.367.457c.248.309 6.154 7.543 13.631 7.543 7.479 0 13.383-7.234 13.63-7.543l.368-.457-.368-.456zm-13.63 5.983c-3.042 0-5.517-2.479-5.517-5.527s2.475-5.527 5.517-5.527 5.516 2.479 5.516 5.527-2.474 5.527-5.516 5.527zM15.412 8c0 .783-.633 1.417-1.415 1.417-.781 0-1.415-.635-1.415-1.417s.634-1.417 1.415-1.417c.782 0 1.415.634 1.415 1.417z"/></svg>