<svg xmlns="http://www.w3.org/2000/svg" class="icon" width="27" height="45" viewBox="0 0 27 45"><path d="M19.573 40.252c0-.492.459-.721.373-1.368-.086-.641-.373-.641-.445-1.042-.076-.4.559-.682.389-1.386-.166-.698-.705-.743-.705-1.401l.428-1.234c-1.131.015-3.848.886-5.248.898.142.146-5.585-.637-6.637-.648 0 0 .386 1.066.386 1.722 0 .66-.39.325-.558 1.026-.167.703.529.982.427 1.484-.101.502-.45.336-.539.981-.087.643.737 1.073.737 1.073s-.401 1.697 1.789 2.931c2.192 1.231 2.996 1.719 2.996 1.719h1.716c.905-.479 2.12-1.17 3.332-1.743.451-.209.982-.756.982-.756.764-.131.968-.835.893-1.232-.076-.4-.316-.561-.316-1.024"/><path d="M13.499 0c-9.602 0-13.499 8.468-13.499 13.311 0 4.842 1.775 7.35 2.868 9.227 1.095 1.883 2.018 4.008 2.531 5.09.511 1.077.579 1.46.579 2.856 0 1.395.206 2.193.958 3.031.772.855 3.333 1.6 6.562 1.6 3.228 0 5.788-.744 6.56-1.6.752-.838.957-1.637.957-3.031 0-1.396.067-1.779.582-2.856.512-1.083 1.438-3.207 2.526-5.09 1.096-1.877 2.871-4.385 2.871-9.227 0-4.843-3.897-13.311-13.495-13.311zm5.147 14.603c-.018.059-1.953 6.622-2.539 8.943-.56 2.205-.558 3.783-.558 3.851l-.009.133c-.117.428-.391 1.508-.425 1.934-.021.26.032.598.093.988.055.347.115.717.146 1.141.049.605.045 1.352.043 1.846v.16l.002.297.014.281-.273.021-.505.029-.47.022-.02-.281-.006-.504c.008-.759-.004-1.337-.039-1.771-.026-.356-.076-.678-.125-.985-.083-.526-.149-.937-.117-1.349.047-.566.35-1.73.433-2.043.003-.377.051-1.932.598-4.094.469-1.855 1.762-6.292 2.309-8.157-.512.038-1.198.25-1.844.967l-.303.323-.33-.283c-.017-.013-.47-.382-1.245-.382-.772 0-1.226.369-1.246.384l-.327.283-.296-.323c-.648-.719-1.335-.931-1.848-.969.537 1.826 1.842 6.304 2.311 8.157.544 2.156.591 3.713.595 4.094.062.23.381 1.443.431 2.041.034.404-.023.802-.109 1.317-.05.318-.101.649-.131 1.021-.041.519-.04 1.172-.04 1.65v.119l-.002.501-.017.285-.474-.024-.506-.029-.289-.021.028-.293.002-.283v-.135c-.004-.558-.004-1.277.042-1.873.027-.369.079-.703.125-1.003l.018-.116c.066-.408.12-.748.097-1.008-.033-.404-.289-1.443-.412-1.885l-.022-.184c0-.064.001-1.646-.558-3.849-.555-2.205-2.333-8.24-2.533-8.92-.055-.184-.04-.356.04-.506.08-.153.211-.265.375-.315.284-.089.61.058.744.326.626-.018 1.607.132 2.53.994.311-.167.809-.359 1.472-.359.665 0 1.167.192 1.477.359.925-.867 1.9-1.01 2.529-.994.14-.276.459-.417.742-.326.162.05.295.162.375.314.08.149.095.321.047.483z"/></svg>