<svg xmlns="http://www.w3.org/2000/svg" class="icon" width="18" height="16" viewBox="0 0 18 16"><path d="M6.928 10.583c1.144-1.14 3.006-1.14 4.152.001l1.384-1.378c-1.908-1.9-5.014-1.901-6.921-.002l1.385 1.379zM10.378 12.656c.764.762.764 1.993-.001 2.756-.765.761-2.002.761-2.768 0-.765-.762-.764-1.995 0-2.755.766-.761 2.004-.762 2.769-.001zM4.15 7.836c2.67-2.658 7.018-2.658 9.688.002l1.384-1.378c-3.434-3.419-9.021-3.42-12.455-.001l1.383 1.377zM1.384 5.081c4.196-4.178 11.024-4.178 15.222.002l1.383-1.377c-4.961-4.941-13.029-4.941-17.989-.002l1.384 1.377z"/></svg>